<svg width="64" height="64" fill="none" xmlns="http://www.w3.org/2000/svg"><path d="M30.667 53.333h-16A2.667 2.667 0 0112 50.667V13.333a2.667 2.667 0 012.667-2.666H28v8a8 8 0 008 8h8V40a2.667 2.667 0 105.333 0V23.84a3.494 3.494 0 00-.16-.72v-.24a2.852 2.852 0 00-.506-.747l-16-16a2.854 2.854 0 00-.747-.506.774.774 0 00-.267 0 2.933 2.933 0 00-.826-.294h-16.16a8 8 0 00-8 8v37.334a8 8 0 008 8h16a2.667 2.667 0 000-5.334zm2.666-38.906l6.907 6.906H36a2.667 2.667 0 01-2.667-2.666v-4.24zM20 37.333h16A2.667 2.667 0 1036 32H20a2.667 2.667 0 100 5.333zm10.667 5.334H20A2.667 2.667 0 1020 48h10.667a2.667 2.667 0 000-5.333zM20 26.667h2.667a2.667 2.667 0 000-5.334H20a2.667 2.667 0 000 5.334zM56.56 43.44a2.668 2.668 0 00-3.787 0L44 52.24l-3.44-3.467a2.68 2.68 0 00-4.571 1.894 2.676 2.676 0 00.784 1.893l5.334 5.333a2.665 2.665 0 003.786 0L56.56 47.227a2.668 2.668 0 000-3.787z" fill="#1ECBE1"/></svg>