<svg width="64" height="64" fill="none" xmlns="http://www.w3.org/2000/svg"><path d="M58.667 45.333H5.333a2.667 2.667 0 000 5.334h53.334a2.667 2.667 0 000-5.334zm0 10.667H5.333a2.667 2.667 0 000 5.333h53.334a2.667 2.667 0 100-5.333zM16 18.667A2.667 2.667 0 1016 24a2.667 2.667 0 000-5.333zm37.333-16H10.667a8 8 0 00-8 8V32a8 8 0 008 8h42.666a8 8 0 008-8V10.667a8 8 0 00-8-8zM56 32a2.667 2.667 0 01-2.667 2.667H10.667A2.667 2.667 0 018 32V10.667A2.667 2.667 0 0110.667 8h42.666A2.667 2.667 0 0156 10.667V32zM32 13.333a8 8 0 100 15.999 8 8 0 000-15.999zM32 24a2.667 2.667 0 110-5.333A2.667 2.667 0 0132 24zm16-5.333A2.667 2.667 0 1048 24a2.667 2.667 0 000-5.333z" fill="#10ABED" fill-opacity=".91"/></svg>